<?xml version="1.0" standalone="no"?>
<!DOCTYPE svg PUBLIC "-//W3C//DTD SVG 20010904//EN"
 "http://www.w3.org/TR/2001/REC-SVG-20010904/DTD/svg10.dtd">
<svg version="1.0" xmlns="http://www.w3.org/2000/svg"
 width="183.000000pt" height="183.000000pt" viewBox="0 0 183.000000 183.000000"
 preserveAspectRatio="xMidYMid meet">
<metadata>
Created by potrace 1.14, written by Peter Selinger 2001-2017
</metadata>
<g transform="translate(0.000000,183.000000) scale(0.100000,-0.100000)"
fill="#000000" stroke="none">
<path d="M795 1671 c-134 -61 -142 -238 -15 -310 35 -20 52 -23 100 -18 34 3
69 13 83 23 106 80 97 242 -17 301 -44 23 -106 24 -151 4z"/>
<path d="M500 1559 c-155 -35 -217 -58 -206 -79 2 -3 6 -27 10 -55 12 -101 16
-117 40 -218 32 -135 82 -269 146 -397 48 -96 150 -258 182 -291 8 -8 17 -23
22 -34 6 -18 11 -15 49 25 88 95 84 83 44 137 -84 116 -184 309 -238 461 -34
98 -70 253 -60 264 3 4 37 14 74 22 38 7 71 16 74 19 3 3 1 19 -4 34 -5 15 -9
52 -8 81 2 61 5 61 -125 31z"/>
<path d="M1102 1534 c0 -27 -2 -66 -6 -86 l-8 -36 49 -8 c26 -4 53 -9 58 -9 6
-1 20 -3 33 -3 16 -2 22 -8 22 -26 0 -28 5 -33 46 -41 16 -2 43 -8 59 -11 51
-10 60 -10 61 6 0 8 4 35 8 60 15 93 14 130 -3 139 -14 8 -63 19 -201 46 -14
3 -46 8 -72 11 l-48 6 2 -48z"/>
<path d="M738 1295 c-2 -2 -34 -6 -73 -10 -38 -4 -73 -9 -77 -11 -10 -7 -2
-45 24 -109 l20 -50 216 0 c119 0 240 -4 267 -8 141 -21 319 -68 343 -91 11
-10 10 -21 -3 -57 -20 -53 -35 -113 -28 -105 8 7 102 -30 122 -48 10 -9 22
-16 27 -16 21 0 107 307 92 327 -9 11 -112 54 -211 88 -65 22 -242 63 -327 76
-65 10 -384 21 -392 14z"/>
<path d="M215 1161 c-71 -25 -135 -60 -141 -75 -5 -13 50 -186 85 -269 18 -41
41 -63 41 -39 0 11 68 48 104 56 31 8 31 5 -5 100 -21 54 -22 59 -6 71 9 7 17
18 17 25 0 11 -40 150 -43 150 -1 -1 -24 -9 -52 -19z"/>
<path d="M1168 1006 c-8 -8 -21 -29 -28 -48 -39 -95 -160 -291 -248 -398 -51
-62 -211 -220 -223 -220 -4 0 -31 27 -60 60 l-52 60 -40 -36 c-21 -20 -52 -40
-68 -46 -16 -5 -29 -14 -29 -19 0 -21 212 -239 231 -239 7 0 37 19 68 42 167
126 306 274 426 453 67 100 185 328 185 358 0 11 -16 19 -57 27 -32 6 -65 13
-74 16 -9 3 -23 -2 -31 -10z"/>
<path d="M1345 784 c-147 -50 -161 -256 -23 -323 49 -23 76 -26 130 -11 74 21
122 90 121 176 0 46 -6 61 -30 92 -56 69 -124 92 -198 66z"/>
<path d="M308 768 c-43 -11 -101 -65 -116 -106 -27 -79 14 -184 86 -218 115
-54 249 21 254 143 4 125 -105 213 -224 181z"/>
<path d="M1160 423 c-53 -71 -58 -75 -82 -62 -18 10 -28 4 -79 -51 l-59 -62
25 -20 c14 -11 32 -26 39 -34 8 -8 18 -14 22 -14 4 0 21 -10 38 -23 17 -13 36
-26 43 -30 13 -8 65 40 138 128 28 33 60 71 73 85 12 14 22 28 22 32 0 4 -17
16 -37 27 -21 11 -51 31 -67 45 -16 14 -32 26 -35 26 -3 0 -22 -22 -41 -47z"/>
</g>
</svg>
